<svg xmlns="http://www.w3.org/2000/svg" width="500" height="500" viewBox="0 0 500 500"><path d="M300.7 138.2V37.1c8.7-3.5 13.9-7.8 13.9-12.4 0-11-28.6-18.9-64.6-19.5-36.1.6-64.6 8.5-64.6 19.5 0 4.7 5.2 9 13.8 12.4v101.1C114.5 309.6-166.1 490.6 250 490.6c415.9 0 135.4-181 50.7-352.4z" fill="#EBEBEB"/><path d="M354.2 278.5c-9.9-11.6-46.3-20.7-102.9-21.7-56.6 1-92.9 10-102.9 21.7-50.6 70.8-109.1 137.4-48.2 163.3 34.9 14.8 73.4 18.8 151.1 18.8 77.7 0 116.2-3.9 151.1-18.8 60.9-26 2.3-92.6-48.2-163.3z" fill="#63BCCC"/><path d="M372.7 300.2c-5.6-7.6-11.2-15.3-16.9-23.2-11.2-13.1-50.3-21.5-104.6-22.4-54.2.9-93.3 9.3-104.6 22.6-5.5 7.8-11.2 15.5-16.7 23.1-33.2 45.5-64.6 88.4-56.6 117.6 3.1 11.3 11.6 19.8 26 25.9 33.7 14.3 70.6 18.9 152 18.9 81.3 0 118.3-4.6 152-18.9 14.4-6.1 22.9-14.6 26-25.9 8.1-29.3-23.3-72.2-56.6-117.7zm-57-11.1c-61.8 27.2-254.6-18.9-85.9-24.2 46.5-1.5 104.1 16.1 85.9 24.2zm67 128.7c-2.7 9.9 4.3 36.5-131.4 40.4-80.6 2.3-117.2-4.5-150.2-18.6-13.1-5.6-20.8-13.1-23.5-23-7.5-27.1 23.3-69.2 55.9-113.8 5.2-7.1 10.5-14.3 15.5-21.4 34.6 29.9 151.1 26.3 174.8 18 4.6-1.5 66.3 91.3 58.9 118.4z" fill="#41ADC0"/><path d="M372.7 300.2c-5.6-7.6-11.2-15.3-16.9-23.2-.2-.3-.5-.5-.7-.8 2.3 2.9-.6 6.5-2.9 8.4-16.8 13.8-68.6 19-78 18.9-.7.3-2.8.4-2.1.7 8.6 2.9 46.6.5 67.9-4.4 0 0 25.7-.5 55.1 39.2 6.5 8.8 25.9 35 25.9 35-.2-2.2-15-28.3-48.3-73.8z" fill="#32A8BD"/><path d="M407.8 465.6c-32.4 10.8-83.3 10.6-157.9 16.8-135.5 11.2-208-39.4-214.1-44.7-2.6-2.2-4.2-6-6-8.7 8.7 39.6 68 64.7 220.1 64.7 136.9 0 203.1-20.9 218.5-59.9-1.6 2-57.9 32.3-60.6 31.8z" fill="#9B9A9B"/><path d="M303.7 144.1c-.2-4.1-.4-8.5-.9-13.2l-.3-81.1c14.4-5.6 40.3-46.1-56.9-44.5C159.8 6.6 179 42.7 197 50.8c0 .2 0 .3-.1.3v79.8c-.7 5.3-1.5 10.7-2.1 15.7-89.3 168.9-354.2 344.1 55 344.1 411.4-.1 141.9-177 53.9-346.6zm-53.8 335.2c-376.5 0-142.3-153.9-51.9-312.5 1.6-2.3 11.5-22.5 14.3-29 0 0 2.5-78.5 0-83.8 0 0 43.9 6.6 73.6.2 1.9 21.6 1 68 1.5 80.9 5.3 16.8 9.1 25.4 11.7 28.1 86.3 162.5 330.8 316.1-49.2 316.1z" fill="#D9DAD8"/><g fill="#E6E6E6"><path d="M305.1 21.7c-2.7-6.9-25.7-12.2-53.6-12.2h-1.6c27.5.2 50.2 5.4 55.2 12.2zM197.7 23.1c0 7.5 24.1 13.6 53.9 13.6 29.7 0 53.9-6.1 53.9-13.6 0-.5-.1-.9-.3-1.4-5-6.8-27.7-12-55.1-12.2-29.1.2-52.4 6.2-52.4 13.6z"/></g><path d="M290 32.3c0 3-19 5.5-42.4 5.5s-42.4-2.5-42.4-5.5 19-5.5 42.4-5.5c23.5 0 42.4 2.4 42.4 5.5z" fill="#C7C5C4"/><path d="M304.5 20.7c.2.4.9 2 .9 2.4 0 7.5-24 13.6-53.7 13.6-29.7 0-53.9-6.1-53.9-13.6 0-7.4 23.3-13.4 52.3-13.6h-1.5c-31.9 0-57.7 6.8-57.7 15.1s25.9 15.1 57.7 15.1c31.9 0 57.7-6.8 57.7-15.1 0-1.5-1.1-3-1.8-3.9z" fill="#F2F2F2"/><path d="M264.8 156.6c17.7-2 12.9-6.3 6.4-5.1-12.1 2.4-43.7 3.2-48.5-5.4l-.9-90.9-9.6-1.2.2 83.7S73.2 338 72.6 339.1c-14.2 20.3-47.1 73.8-17.9 101.5 35.9 34.1 125.3 40.7 217.9 38.3 22.8 2.8-219.2-11.6-173.6-108.5 26.6-56.1 113.5-208.1 165.8-213.8z" opacity=".5" fill="#fff"/><path d="M212.4 54l4 .5v91.7s4.6 9.7 16.6 9.7c0 0 13.3.5 0 5.1 0 0-16.9 1.6-20.5-8.3 0 0-97.8 135-105.1 136.4 0 0 87.6-126.1 102.9-148.2l2.1-86.9z" fill="#fff"/></svg>