<svg xmlns="http://www.w3.org/2000/svg" width="500" height="500" viewBox="0 0 500 500"><path d="M250.5 502.6l-.1-489.4v13.2c3.2 2.8-5.3-2.1 0-13.2 1-2.1-8.4 0 0 0 .7 0-.5 0 0 0 2.1-.4-2.8 0 0 0 4.6 0-1.3-.2 0 0l59.8.1c1.3-.2 5.7-.7 10.2-.7 2.8 0 5.3.2 7.3.6h1.7c8.4 0 11.3 3.6 12.3 5.7 2.8 6-2.3 14.5-16.8 27.3l-.2 154L483.1 438c1.4 1.8 10.1 13.5 10.1 31.4 0 19.3-20.4 33.3-48.4 33.3m-194.3-.1" fill="#424343"/><g><path d="M446.7 503.2L58 502.7c-28 0-48.4-14.1-48.3-33.5 0-18 8.8-29.7 10.2-31.4l158.8-238.2.2-154.5c-14.4-12.9-19.6-21.4-16.7-27.4 1-2.1 4-5.7 12.3-5.7h1.7c2.1-.4 4.5-.6 7.4-.6 4.6 0 8.9.5 10.2.7l118.4.1c1.3-.2 5.7-.7 10.2-.7 2.8 0 5.3.2 7.3.6h1.7c8.4 0 11.3 3.6 12.3 5.7 2.8 6-2.3 14.5-16.8 27.4l-.2 154.5L485 438.3c1.4 1.8 10.1 13.5 10.1 31.5 0 19.4-20.4 33.4-48.4 33.4" opacity=".9" fill="#D2D0CF"/><path d="M154.8 292.1L59.5 427.8s-10.4 16.6-5.5 28.7c4.9 12.1 8 19.8 51.7 19.8l313.4.4s28.8.8 34.2-18.8c5.5-19.5-3.1-28.9-20.4-52.2-17.1-23.2-73.9-103.4-73.9-103.4S162.9 284 154.8 292.1" opacity=".7" fill="#09c"/></g></svg>