<svg xmlns="http://www.w3.org/2000/svg" xmlns:xlink="http://www.w3.org/1999/xlink" width="500" height="400" viewBox="0 0 500 400"><g><defs><path id="a" d="M325.7 131.2l-.2-48.7h7.1c12 0 21.8 9.7 21.8 21.7l.1 37.1c0 12-9.7 21.8-21.7 21.8l-190 .7c-12 0-21.8-9.7-21.8-21.7V105c0-12 9.7-21.8 21.7-21.8h10.8l.2 48.7c0 9.4 7.6 17 16.9 17.1h.2c9.5 0 17.1-7.7 17.1-17.2l-.2-48.8 34.7-.1.2 48.7c0 9.4 7.6 17 16.9 17.1h.2c9.5 0 17.1-7.7 17.1-17.2l-.2-48.7 34.7-.1.2 48.7c0 9.4 7.6 17 16.9 17.1h.2c9.5-.2 17.1-7.8 17.1-17.3m-.8-115.5l-17 .1-16.9.1c-3.3 0-6 2.7-6 6v3.2c0 3.3 2.7 6 6 6h.1c-.1.6-.1 1.3-.1 1.9l.2 44.9-34.6.1-.2-44.9c0-.7 0-1.3-.1-1.9 3.2-.1 5.8-2.8 5.8-6V22c0-3.3-2.7-6-6-6H239l-16.9.1c-3.3 0-6 2.7-6 6v3.2c0 3.3 2.7 6 6 6h.1c-.1.6-.1 1.3-.1 1.9l.2 44.9-34.7.1-.2-44.9c0-.7 0-1.3-.1-1.9 3.2-.1 5.8-2.8 5.8-6v-3.2c0-3.3-2.7-6-6-6h-.1l-17 .1-16.9.1c-3.3 0-6 2.7-6 6v3.2c0 3.3 2.7 6 6 6h.1c-.1.6-.1 1.3-.1 1.9l.2 44.9h-10.8c-14.6.1-26.5 12-26.4 26.6l.1 37.1c.1 14.6 12 26.5 26.6 26.4l190-.7c14.6-.1 26.5-12 26.4-26.6l-.1-37.1c-.1-14.6-12-26.5-26.6-26.4h-7.1l-.2-44.9c0-.7-.1-1.3-.1-1.9 3.2-.1 5.8-2.8 5.8-6v-3.2c.1-3.3-2.6-6-6-6z"/></defs><clipPath id="c"><use xlink:href="#a" overflow="visible"/></clipPath><defs><filter id="b" filterUnits="userSpaceOnUse" x="114.1" y="12.7" width="247.2" height="158.9"><feColorMatrix values="1 0 0 0 0 0 1 0 0 0 0 0 1 0 0 0 0 0 1 0"/></filter></defs><mask maskUnits="userSpaceOnUse" x="114.1" y="12.7" width="247.2" height="158.9" id="e"><g filter="url(#b)"><linearGradient id="d" gradientUnits="userSpaceOnUse" x1="-147.232" y1="601.382" x2="-146.34" y2="601.382" gradientTransform="matrix(2.068 -169.915 -169.915 -2.068 102726 -23664.125)"><stop offset="0"/><stop offset="1" stop-color="#fff"/></linearGradient><path clip-path="url(#c)" fill="url(#d)" d="M114.1 168.5L116 12.7l245.3 3-1.9 155.8z"/></g></mask><linearGradient id="f" gradientUnits="userSpaceOnUse" x1="-147.232" y1="601.382" x2="-146.34" y2="601.382" gradientTransform="matrix(2.068 -169.915 -169.915 -2.068 102726 -23664.125)"><stop offset="0" stop-color="#A4CCB6"/><stop offset="1" stop-color="#83BA9E"/></linearGradient><path clip-path="url(#c)" mask="url(#e)" fill="url(#f)" d="M114.1 168.5L116 12.7l245.3 3-1.9 155.8z"/><defs><path id="g" d="M185.2 4.9h-26.8c-2.2 0-4 1.8-4 4 0 2 1.5 3.6 3.4 4v5.4l14-.1 14.1-.1h.1v-5.4c1.9-.3 3.4-2 3.3-4 0-2-1.8-3.8-4.1-3.8z"/></defs><clipPath id="i"><use xlink:href="#g" overflow="visible"/></clipPath><defs><filter id="h" filterUnits="userSpaceOnUse" x="154.2" y="4.5" width="35.3" height="14.4"><feColorMatrix values="1 0 0 0 0 0 1 0 0 0 0 0 1 0 0 0 0 0 1 0"/></filter></defs><mask maskUnits="userSpaceOnUse" x="154.2" y="4.5" width="35.3" height="14.4" id="k"><g filter="url(#h)"><linearGradient id="j" gradientUnits="userSpaceOnUse" x1="-147.288" y1="601.321" x2="-146.344" y2="601.321" gradientTransform="matrix(2.068 -169.902 -169.902 -2.068 102641 -23664)"><stop offset="0"/><stop offset="1" stop-color="#fff"/></linearGradient><path clip-path="url(#i)" fill="url(#j)" d="M154.2 18.5l.2-14 35.1.4-.2 14z"/></g></mask><linearGradient id="l" gradientUnits="userSpaceOnUse" x1="-147.288" y1="601.321" x2="-146.344" y2="601.321" gradientTransform="matrix(2.068 -169.902 -169.902 -2.068 102641 -23664)"><stop offset="0" stop-color="#A4CCB6"/><stop offset="1" stop-color="#83BA9E"/></linearGradient><path clip-path="url(#i)" mask="url(#k)" fill="url(#l)" d="M154.2 18.5l.2-14 35.1.4-.2 14z"/><defs><path id="m" d="M254.5 5h-26.9c-2.2 0-4 1.8-4 4 0 2 1.5 3.6 3.4 4v5.4l14-.1 14.1-.1h.1v-5.4c1.9-.3 3.4-2 3.3-4 .1-2-1.7-3.8-4-3.8z"/></defs><clipPath id="o"><use xlink:href="#m" overflow="visible"/></clipPath><defs><filter id="n" filterUnits="userSpaceOnUse" x="223.5" y="4.5" width="35.3" height="14.4"><feColorMatrix values="1 0 0 0 0 0 1 0 0 0 0 0 1 0 0 0 0 0 1 0"/></filter></defs><mask maskUnits="userSpaceOnUse" x="223.5" y="4.5" width="35.3" height="14.4" id="q"><g filter="url(#n)"><linearGradient id="p" gradientUnits="userSpaceOnUse" x1="-147.287" y1="600.914" x2="-146.337" y2="600.914" gradientTransform="matrix(2.068 -169.902 -169.902 -2.068 102641 -23664)"><stop offset="0"/><stop offset="1" stop-color="#fff"/></linearGradient><path clip-path="url(#o)" fill="url(#p)" d="M223.5 18.5l.2-14 35.1.5-.2 14z"/></g></mask><linearGradient id="r" gradientUnits="userSpaceOnUse" x1="-147.287" y1="600.914" x2="-146.337" y2="600.914" gradientTransform="matrix(2.068 -169.902 -169.902 -2.068 102641 -23664)"><stop offset="0" stop-color="#A4CCB6"/><stop offset="1" stop-color="#83BA9E"/></linearGradient><path clip-path="url(#o)" mask="url(#q)" fill="url(#r)" d="M223.5 18.5l.2-14 35.1.5-.2 14z"/><defs><path id="s" d="M322.8 3.9h-13.4L296 4c-2.2 0-4 1.8-4 4 0 2 1.5 3.6 3.4 4v5.4l14-.1 14.1-.1h.1v-5.4c1.9-.3 3.4-2 3.3-4 0-2.1-1.8-3.9-4.1-3.9z"/></defs><clipPath id="u"><use xlink:href="#s" overflow="visible"/></clipPath><defs><filter id="t" filterUnits="userSpaceOnUse" x="291.8" y="3.5" width="35.3" height="14.4"><feColorMatrix values="1 0 0 0 0 0 1 0 0 0 0 0 1 0 0 0 0 0 1 0"/></filter></defs><mask maskUnits="userSpaceOnUse" x="291.8" y="3.5" width="35.3" height="14.4" id="w"><g filter="url(#t)"><linearGradient id="v" gradientUnits="userSpaceOnUse" x1="-147.275" y1="600.512" x2="-146.326" y2="600.512" gradientTransform="matrix(2.068 -169.902 -169.902 -2.068 102641 -23664)"><stop offset="0"/><stop offset="1" stop-color="#fff"/></linearGradient><path clip-path="url(#u)" fill="url(#v)" d="M291.8 17.5l.2-14 35.1.4-.2 14z"/></g></mask><linearGradient id="x" gradientUnits="userSpaceOnUse" x1="-147.275" y1="600.512" x2="-146.326" y2="600.512" gradientTransform="matrix(2.068 -169.902 -169.902 -2.068 102641 -23664)"><stop offset="0" stop-color="#A4CCB6"/><stop offset="1" stop-color="#83BA9E"/></linearGradient><path clip-path="url(#u)" mask="url(#w)" fill="url(#x)" d="M291.8 17.5l.2-14 35.1.4-.2 14z"/><defs><path id="y" d="M106.3 186.5l-44.5.2H48l-44.5.2s-3.9-.8.3 4.1c4.2 4.9 6.8 6.2 6.8 13.6l.4 111.6s-3.8 2.6 10.3 2.5l42.3-.1h5.8l20.2-.1c14.1 0 10.3-2.6 10.3-2.6l-.4-111.6c0-7.5 2.5-8.8 6.7-13.7 3.2-3.7 1.7-4.2.8-4.2-.4.1-.7.1-.7.1"/></defs><use xlink:href="#y" overflow="visible" fill="#EAEAEA"/><clipPath id="A"><use xlink:href="#y" overflow="visible"/></clipPath><defs><filter id="z" filterUnits="userSpaceOnUse" x="-7.7" y="182" width="124.6" height="140.6"><feColorMatrix values="1 0 0 0 0 0 1 0 0 0 0 0 1 0 0 0 0 0 1 0"/></filter></defs><mask maskUnits="userSpaceOnUse" x="-7.7" y="182" width="124.6" height="140.6" id="C"><g filter="url(#z)"><linearGradient id="B" gradientUnits="userSpaceOnUse" x1="-149.969" y1="599.314" x2="-149.097" y2="599.314" gradientTransform="matrix(9.185 -167.264 -208.146 -7.12 126173.125 -20497.625)"><stop offset="0"/><stop offset="1" stop-color="#fff"/></linearGradient><path clip-path="url(#A)" fill="url(#B)" d="M-7.7 318.6L-.2 182l117.1 4-7.5 136.6z"/></g></mask><path clip-path="url(#A)" mask="url(#C)" fill="#EAEAEA" d="M-7.7 318.6L-.2 182l117.1 4-7.5 136.6z"/><defs><path id="D" d="M59.4 189.3m29.2-64.1c-3.8.8-14.6 26.6-21.7 45.9-6.9 18.6-7.5 18.2-7.6 18.2l11.8 19.6 24.4-80.3c-.2-.2-.8-3-4-3.6-.8 0-1.7 0-2.9.2"/></defs><use xlink:href="#D" overflow="visible" fill="#EAEAEA"/><clipPath id="F"><use xlink:href="#D" overflow="visible"/></clipPath><defs><filter id="E" filterUnits="userSpaceOnUse" x="54.2" y="119.6" width="44.2" height="93.1"><feColorMatrix values="1 0 0 0 0 0 1 0 0 0 0 0 1 0 0 0 0 0 1 0"/></filter></defs><mask maskUnits="userSpaceOnUse" x="54.2" y="119.6" width="44.2" height="93.1" id="H"><g filter="url(#E)"><linearGradient id="G" gradientUnits="userSpaceOnUse" x1="-149.32" y1="599.251" x2="-148.758" y2="599.251" gradientTransform="matrix(52.437 -259.62 -191.095 -44.339 122388.375 -11873.75)"><stop offset="0"/><stop offset="1" stop-color="#fff"/></linearGradient><path clip-path="url(#F)" fill="url(#G)" d="M54.2 205.9L71 119.6l27.4 6.8-16.8 86.3z"/></g></mask><path clip-path="url(#F)" mask="url(#H)" fill="#EAEAEA" d="M54.2 205.9L71 119.6l27.4 6.8-16.8 86.3z"/><path d="M251.6 264.1V397h30.1V264s-4.4-7.1-15.1-7.1c-10.7.1-15 7.2-15 7.2zm18.4.6c0 1.9-1.5 3.4-3.4 3.4s-3.4-1.5-3.4-3.4 1.5-3.4 3.4-3.4 3.4 1.5 3.4 3.4z" fill="#EAEAEA"/><g fill="#EAEAEA"><path d="M218 306.3c1.5-1.8 2.7-1.4 2.7 1v63.2c0 1.4-.7 2.5-1.6 3.3l19.6 19.6c.2-.5.4-1.1.4-1.7V253.1c0-2.3-1.2-2.8-2.7-1l-63 75.9 14.6 14.6 30-36.3zM219.1 373.8c-.7.6-1.6.9-2.6.9h-51c-2.3 0-3-1.5-1.5-3.3l24-28.9-14.7-14.5-53.6 64.6c-1.5 1.8-.8 3.3 1.5 3.3h113.5c1.7 0 3.2-1 3.9-2.5l-19.5-19.6zM147 360.14l7.62 6.318-.83 1-7.62-6.318zM152.237 353.806l7.62 6.32-.83 1.002-7.62-6.32zM149.565 356.905l3.465 2.872-.83 1-3.464-2.87zM155.273 350.136l3.463 2.872-.83 1-3.463-2.872zM158.292 346.383l7.62 6.32-.828 1-7.62-6.32zM163.594 339.995l7.622 6.318-.83 1-7.622-6.317zM160.97 343.193l3.465 2.872-.83 1-3.464-2.872zM166.557 336.385l3.466 2.87-.83 1-3.465-2.87zM169.437 333.006l7.622 6.318-.83 1-7.622-6.317zM181.5 333.9l-7.6-6.3.8-1 7.7 6.3zM172.058 329.765l3.464 2.873-.83 1-3.464-2.873zM177.735 323l3.465 2.87-.83 1.002-3.464-2.87zM181.24 318.81l7.62 6.32-.83 1-7.62-6.32zM186.552 312.4l7.62 6.318-.828 1-7.62-6.317zM183.852 315.58l3.464 2.874-.83 1-3.464-2.872zM189.502 308.82l3.464 2.872-.83 1-3.464-2.87zM199.9 311.8l-7.6-6.4.8-1 7.7 6.3zM198.482 298.018l7.623 6.316-.83 1-7.623-6.315zM198.4 305.1l-3.5-2.9.9-1 3.5 2.9zM201.46 294.424l3.467 2.87-.83 1.002-3.465-2.87z"/></g><g fill="#EAEAEA"><path d="M422.1 165.7c-6.6 0-11.9 5.3-11.9 11.9v12.7c0 6.6 5.3 11.9 11.9 11.9 6.6 0 11.9-5.3 11.9-11.9v-12.7c0-6.5-5.3-11.9-11.9-11.9zm0 12.4c-2.1 0-3.8-1.7-3.8-3.8 0-2.1 1.7-3.8 3.8-3.8 2.1 0 3.8 1.7 3.8 3.8 0 2.1-1.7 3.8-3.8 3.8zM358.5 187.7c-3.5 0-6.3 2.9-6.3 6.3v85.9l102.6-92.2h-96.3zM492.3 194c0-3.5-2.9-6.3-6.3-6.3h-31.3l-102.6 92.2v74.7c0 3.5 2.8 6.3 6.3 6.3h48l85.9-72.8V194zM406.5 360.9H486c3.5 0 6.3-2.9 6.3-6.3v-66.5l-85.8 72.8zM368.5 307l23.2 23.3h84V207.1zM475.7 197.7H367.4V306l1.1 1 107.2-99.9z"/><path opacity=".2" d="M396.9 302.3l-29.5 3.7 24.3 24.3z"/><path d="M391.7 306h-24.3l24.3 24.3zM392.1 181.1V204h1.4l56.6-22.9zM393.5 204h58.8v-22.9h-2.2zM467.1 235.7c0 .5-.9.9-2 .9H378c-1.1 0-2-.4-2-.9s.9-.9 2-.9h87.1c1.1 0 2 .4 2 .9zM467.1 239.9c0 .5-.9.9-2 .9H378c-1.1 0-2-.4-2-.9s.9-.9 2-.9h87.1c1.1 0 2 .4 2 .9zM467.1 244c0 .5-.9.9-2 .9H378c-1.1 0-2-.4-2-.9s.9-.9 2-.9h87.1c1.1.1 2 .5 2 .9zM467.1 248.2c0 .5-.9.9-2 .9H378c-1.1 0-2-.4-2-.9s.9-.9 2-.9h87.1c1.1 0 2 .4 2 .9zM467.1 252.4c0 .5-.9.9-2 .9H378c-1.1 0-2-.4-2-.9s.9-.9 2-.9h87.1c1.1 0 2 .4 2 .9zM467.1 256.6c0 .5-.9.9-2 .9H378c-1.1 0-2-.4-2-.9s.9-.9 2-.9h87.1c1.1 0 2 .4 2 .9zM467.1 263.8c0 .5-.9.9-2 .9H378c-1.1 0-2-.4-2-.9s.9-.9 2-.9h87.1c1.1.1 2 .5 2 .9zM467.1 268c0 .5-.9.9-2 .9H378c-1.1 0-2-.4-2-.9s.9-.9 2-.9h87.1c1.1 0 2 .4 2 .9zM467.1 272.2c0 .5-.9.9-2 .9H378c-1.1 0-2-.4-2-.9s.9-.9 2-.9h87.1c1.1 0 2 .4 2 .9zM467.1 276.4c0 .5-.9.9-2 .9H378c-1.1 0-2-.4-2-.9s.9-.9 2-.9h87.1c1.1 0 2 .4 2 .9zM467.1 280.6c0 .5-.9.9-2 .9H378c-1.1 0-2-.4-2-.9s.9-.9 2-.9h87.1c1.1 0 2 .4 2 .9zM467.1 284.7c0 .5-.9.9-2 .9H378c-1.1 0-2-.4-2-.9s.9-.9 2-.9h87.1c1.1 0 2 .4 2 .9z"/></g></g><g><g opacity=".71"><defs><path id="I" d="M37.4 186c0 2.7 2.2 4.9 4.9 4.9s4.9-2.2 4.9-4.9-2.2-4.9-4.9-4.9c-2.8 0-4.9 2.2-4.9 4.9" opacity=".71"/></defs><clipPath id="K"><use xlink:href="#I" overflow="visible"/></clipPath><defs><filter id="J" filterUnits="userSpaceOnUse" x="32.5" y="176.2" width="19.5" height="19.5"><feColorMatrix values="1 0 0 0 0 0 1 0 0 0 0 0 1 0 0 0 0 0 1 0"/></filter></defs><mask maskUnits="userSpaceOnUse" x="32.5" y="176.2" width="19.5" height="19.5" id="M"><g filter="url(#J)"><radialGradient id="L" cx="-148.935" cy="600.002" r=".634" gradientTransform="matrix(-317.766 -315.527 -315.527 317.766 142209 -237525.25)" gradientUnits="userSpaceOnUse"><stop offset="0" stop-color="#fff"/><stop offset="1"/></radialGradient><path clip-path="url(#K)" fill="url(#L)" d="M42.3 195.7l-9.8-9.7 9.7-9.8 9.8 9.7z"/></g></mask><radialGradient id="N" cx="-148.935" cy="600.002" r=".634" gradientTransform="matrix(-317.766 -315.527 -315.527 317.766 142209 -237525.25)" gradientUnits="userSpaceOnUse"><stop offset="0" stop-color="#B1CDE7"/><stop offset="1" stop-color="#fff"/></radialGradient><path clip-path="url(#K)" mask="url(#M)" fill="url(#N)" d="M42.3 195.7l-9.8-9.7 9.7-9.8 9.8 9.7z"/></g><path d="M108.7 191.4c3.3-4.8.2-4.1.2-4.1l-51.5.2h-11l-35.2.1s-3-.8.3 4.1c3.3 4.8 5.4 6.1 5.4 13.4l.4 109.9s-3 2.6 8.1 2.5l33.5-.1h4.6l32.2-.1c11.2 0 8.1-2.6 8.1-2.6l-.4-109.9c0-7.3 2-8.6 5.3-13.4" fill="#fff"/><path fill="#F0E161" d="M28.963 228.205l59.5-.208.274 78.3-59.5.208z"/><g opacity=".1"><defs><path id="O" d="M104.168 317.345l-87.3.305-.342-97.9 87.3-.305z"/></defs><clipPath id="P"><use xlink:href="#O" overflow="visible"/></clipPath><path d="M103.8 314.8l-.3-95.4L17.2 290l.1 25.1s-3 2.6 8.1 2.5l49.7-.2h4.6l16-.1c11.1 0 8.1-2.5 8.1-2.5" clip-path="url(#P)" fill="#626262"/></g><path d="M54.8 228.2l35.6-102.3c.7-2.1 3-3.2 5.2-2.5 2.1.7 3.2 3.1 2.5 5.2l-34.7 99.6" fill="#314A2A"/><path stroke="#314A2A" stroke-width=".559" stroke-miterlimit="10" fill="none" d="M34.9 243.5l.2 54.3M35 249.9h10.4M35.1 270.2h10.3M35.2 290.5h10.3"/><path d="M49.4 186.1c0-2.2 1.8-3.9 3.9-3.9 2.2 0 3.9 1.7 3.9 3.9s-1.7 3.9-3.9 3.9c-2.1 0-3.9-1.8-3.9-3.9M24.6 130.4c0-6.5 5.2-11.8 11.7-11.8 6.5 0 11.8 5.2 11.8 11.7 0 6.5-5.2 11.8-11.7 11.8-6.5 0-11.8-5.2-11.8-11.7" fill="#F0E161"/><path d="M27.2 130.5s0-.2-.1-.7v-.8c0-.3 0-.7.1-1 .1-.4.1-.8.3-1.2.1-.4.3-.8.5-1.3.2-.4.4-.9.8-1.2.3-.4.6-.8 1-1.2.4-.3.7-.7 1.2-1 .4-.3.8-.5 1.2-.8.4-.2.8-.4 1.3-.5l1.2-.3c.4-.1.7-.1 1-.1h1.5s-.2 0-.7.1c-.4.1-1 .2-1.7.4-.3.1-.7.2-1.1.4-.4.1-.7.4-1.1.6-.4.2-.8.5-1.1.8-.4.3-.7.6-1 .9-.3.3-.6.7-.9 1.1-.3.4-.5.7-.8 1.1-.2.4-.4.8-.6 1.1-.2.4-.3.7-.4 1.1-.2.7-.4 1.3-.4 1.7-.2.5-.2.8-.2.8" fill="#F3FAFB"/><path d="M44.5 154.1c0-3.9 3.1-7.1 7-7.1s7.1 3.1 7.1 7-3.1 7-7 7.1c-3.9.1-7.1-3.1-7.1-7" fill="#F0E161"/><path d="M46.1 154.1v-.8c0-.2 0-.4.1-.6 0-.2.1-.4.2-.7.1-.2.2-.5.3-.7.1-.2.2-.5.4-.7.2-.2.3-.4.5-.6.2-.2.4-.4.6-.5.2-.2.5-.3.7-.4.2-.1.5-.2.7-.3.2-.1.4-.1.7-.2.2 0 .4-.1.6-.1h.8s-.1 0-.4.1c-.2 0-.6.1-.9.2-.2.1-.4.1-.6.2l-.6.3c-.2.1-.4.3-.6.4-.2.1-.4.3-.6.5-.2.2-.4.4-.5.6-.2.2-.3.4-.4.6l-.3.6c-.1.2-.2.4-.2.6-.1.4-.2.7-.2.9-.3.5-.3.6-.3.6" fill="#F3FAFB"/><path d="M39 171c0-2.6 2.1-4.7 4.7-4.7s4.7 2.1 4.7 4.7-2.1 4.7-4.7 4.7c-2.6.1-4.7-2.1-4.7-4.7" fill="#F0E161"/><path d="M40 171v-1c0-.1.1-.3.1-.4 0-.2.1-.3.2-.5.1-.1.2-.3.3-.5.1-.2.2-.3.4-.4l.4-.4c.1-.1.3-.2.5-.3.2-.1.3-.1.5-.2s.3-.1.4-.1h1-.2c-.2 0-.4.1-.6.2-.1 0-.3.1-.4.2-.1.1-.3.1-.4.2-.1.1-.3.2-.4.3-.1.1-.3.2-.4.3-.1.1-.2.3-.3.4-.1.1-.2.3-.3.4-.1.1-.2.3-.2.4-.1.1-.1.3-.2.4-.1.3-.1.5-.2.6l-.2.4" fill="#F3FAFB"/><path d="M265.3 272.6c0 1.9-1.5 3.4-3.4 3.4s-3.4-1.5-3.4-3.4 1.5-3.4 3.4-3.4 3.4 1.5 3.4 3.4z" fill="#010101"/><path d="M285.5 263.4s-4.4-7.1-15-7.1c-10.7 0-15 7.1-15 7.1V338l30.1-38.5v-36.1zm-15.1 4c-1.9 0-3.4-1.5-3.4-3.4s1.5-3.4 3.4-3.4 3.4 1.5 3.4 3.4-1.5 3.4-3.4 3.4z" fill="#FFE67E"/><path fill="#F9DD68" d="M255.4 338v58.2h30.1v-96.7z"/><g fill="#67615A"><path d="M273.3 277.6h12.2v1.7h-12.2zM273.3 287.8h12.2v1.7h-12.2zM279.9 282.7h5.6v1.7h-5.6zM279.9 293.5h5.6v1.7h-5.6zM273.3 299.5h12.2v1.6h-12.2zM273.3 309.6h12.2v1.7h-12.2zM279.9 304.6h5.6v1.6h-5.6zM279.9 315.4h5.6v1.7h-5.6zM273.3 320.9h12.2v1.7h-12.2zM273.3 331.1h12.2v1.7h-12.2zM279.9 326h5.6v1.7h-5.6zM279.9 336.8h5.6v1.7h-5.6zM273.3 343.6h12.2v1.7h-12.2zM273.3 353.8h12.2v1.7h-12.2zM279.9 348.7h5.6v1.7h-5.6zM279.9 359.5h5.6v1.7h-5.6zM273.3 366.5h12.2v1.7h-12.2zM273.3 376.6h12.2v1.7h-12.2zM279.9 371.6h5.6v1.6h-5.6zM279.9 382.4h5.6v1.7h-5.6z"/></g><path d="M223.1 299.5c1.5-1.8 2.7-1.4 2.7 1v63.2c0 1.4-.7 2.5-1.6 3.3l19.6 19.6c.2-.5.4-1.1.4-1.7V246.3c0-2.3-1.2-2.8-2.7-1l-63 75.9 14.6 14.6 30-36.3z" fill="#FFE67E"/><path d="M224.2 367c-.7.6-1.6.9-2.6.9h-51c-2.3 0-3-1.5-1.5-3.3l24-28.9-14.6-14.6-53.6 64.6c-1.5 1.8-.8 3.3 1.5 3.3h113.5c1.7 0 3.2-1 3.9-2.5L224.2 367z" fill="#F9DD68"/><g fill="#67615A"><path d="M152.088 353.33l7.622 6.318-.83 1-7.62-6.318zM157.39 346.92l7.62 6.32-.83 1-7.62-6.32zM154.655 350.096l3.465 2.87-.83 1.002-3.464-2.87zM160.362 343.326l3.464 2.873-.83 1-3.464-2.873zM163.382 339.574l7.62 6.32-.83 1-7.62-6.32zM168.683 333.186l7.622 6.318-.83 1-7.62-6.317zM166.06 336.383l3.464 2.872-.83 1-3.464-2.87zM171.647 329.576l3.466 2.87-.83 1-3.465-2.87zM174.527 326.196l7.622 6.318-.83 1-7.623-6.317zM186.6 327.1l-7.6-6.3.9-1 7.6 6.3zM177.225 323.02l3.463 2.872-.83 1-3.463-2.873zM182.824 316.19l3.465 2.87-.83 1.002-3.465-2.87zM186.394 311.922l7.62 6.32-.83 1-7.62-6.32zM191.64 305.59l7.622 6.32-.83 1-7.62-6.32zM189.005 308.695l3.464 2.872-.83 1-3.465-2.872zM194.655 301.934l3.464 2.872-.83 1-3.465-2.87zM205 304.9l-7.6-6.3.8-1 7.7 6.3zM203.57 291.21l7.624 6.315-.83 1-7.623-6.315zM203.5 298.3l-3.5-2.9.9-1 3.5 2.9zM206.55 287.614l3.466 2.87-.83 1.002-3.465-2.87z"/></g><path d="M337.3 168.5l-188.3.7c-16.8.1-30.4-13.5-30.5-30.3l-.1-36.8c-.1-16.8 13.5-30.4 30.3-30.5l188.2-.6c16.8-.1 30.4 13.5 30.5 30.3l.1 36.8c.1 16.7-13.5 30.4-30.2 30.4zM148.7 84.6c-9.6 0-17.4 7.9-17.4 17.5l.1 36.8c0 9.6 7.9 17.4 17.5 17.4l188.3-.7c9.6 0 17.4-7.9 17.4-17.5l-.1-36.8c0-9.6-7.9-17.4-17.5-17.4l-188.3.7z" fill="#DD5757"/><path d="M192.8 14.2l-33.6.1c-3.3 0-6 2.7-6 6v3.1c0 3.3 2.7 6 6 6h.1c-.1.6-.1 1.3-.1 1.9l.3 97.5c0 9.4 7.7 17 17 16.9 9.4 0 16.9-7.7 16.9-17l-.3-97.5c0-.6 0-1.3-.1-1.9 3.2-.1 5.8-2.7 5.8-6v-3.1c-.1-3.4-2.7-6-6-6" fill="#fff"/><path d="M192.3 7.3c0 2.1-1.7 3.8-3.8 3.8l-25.2.1c-2.1 0-3.8-1.7-3.8-3.8 0-2.1 1.7-3.8 3.8-3.8l25.2-.1c2.1 0 3.7 1.7 3.8 3.8" fill="#242526"/><path fill="#242526" d="M162.685 7.346l26.4-.092.03 8.8-26.4.092z"/><path d="M192.8 14.2l-33.6.1c-3.3 0-6 2.7-6 6v3.1c0 3.3 2.7 6 6 6h.1c-.1.6-.1 1.3-.1 1.9l.3 97.5c0 9.4 7.7 17 17 16.9 9.4 0 16.9-7.7 16.9-17l-.3-97.5c0-.6 0-1.3-.1-1.9 3.2-.1 5.8-2.7 5.8-6v-3.1c-.1-3.4-2.7-6-6-6" fill="#fff"/><path d="M192.3 7.3c0 2.1-1.7 3.8-3.8 3.8l-25.2.1c-2.1 0-3.8-1.7-3.8-3.8 0-2.1 1.7-3.8 3.8-3.8l25.2-.1c2.1 0 3.7 1.7 3.8 3.8" fill="#242526"/><path fill="#242526" d="M162.685 7.346l26.4-.092.03 8.8-26.4.092z"/><path d="M190.1 62l.2 66.5c0 7.6-6.1 13.8-13.8 13.9-7.6 0-13.8-6.1-13.9-13.8l-.2-66.5" fill="#FBB15F"/><path d="M261.1 13.9l-33.6.1c-3.3 0-6 2.7-6 6v3.1c0 3.3 2.7 6 6 6h.1c-.1.6-.1 1.2-.1 1.9l.3 97.5c0 9.4 7.7 17 17 16.9 9.4 0 16.9-7.7 16.9-17l-.3-97.5c0-.6 0-1.3-.1-1.9 3.2-.1 5.8-2.7 5.7-6v-3.1c0-3.3-2.6-6-5.9-6" fill="#fff"/><path d="M260.6 7c0 2.1-1.7 3.8-3.8 3.8l-25.2.1c-2.1 0-3.8-1.7-3.8-3.8 0-2.1 1.7-3.8 3.8-3.8l25.2-.1c2.1.1 3.8 1.8 3.8 3.8" fill="#242526"/><path fill="#242526" d="M230.985 7.15l26.4-.098.033 8.8-26.4.097z"/><path d="M258.3 40.8l.3 87.4c0 7.6-6.1 13.8-13.8 13.9-7.6 0-13.8-6.1-13.9-13.8l-.3-87.4" fill="#F0E161"/><path d="M329.4 13.7l-33.6.1c-3.3 0-6 2.7-5.9 6v3.1c0 3.3 2.7 6 6 6h.1c-.1.6-.1 1.2-.1 1.9l.3 97.5c0 9.4 7.7 16.9 17 16.9 9.4 0 16.9-7.7 16.9-17l-.3-97.5c0-.6 0-1.3-.1-1.9 3.2-.1 5.8-2.7 5.8-6v-3.1c-.2-3.3-2.8-6-6.1-6" fill="#fff"/><path d="M328.9 6.8c0 2.1-1.7 3.8-3.8 3.8l-25.2.1c-2.1 0-3.8-1.7-3.8-3.8 0-2.1 1.7-3.8 3.8-3.8l25.2-.1c2.1 0 3.8 1.7 3.8 3.8" fill="#242526"/><path fill="#242526" d="M299.286 6.948l26.4-.095.032 8.8-26.4.095z"/><path d="M326.8 92.8l.1 35.2c0 7.6-6.1 13.8-13.8 13.9-7.6 0-13.8-6.1-13.9-13.8l-.1-35.2" fill="#2B8590"/><path d="M428.2 162.3c-6.6 0-11.9 5.3-11.9 11.9v12.7c0 6.6 5.3 11.9 11.9 11.9 6.6 0 11.9-5.3 11.9-11.9v-12.7c0-6.5-5.3-11.9-11.9-11.9zm0 12.4c-2.1 0-3.8-1.7-3.8-3.8 0-2.1 1.7-3.8 3.8-3.8 2.1 0 3.8 1.7 3.8 3.8 0 2.1-1.7 3.8-3.8 3.8z" fill="#CBD8D9"/><path d="M364.6 184.3c-3.5 0-6.3 2.9-6.3 6.3v85.9l102.6-92.2h-96.3z" fill="#538F99"/><path d="M498.5 190.6c0-3.5-2.9-6.3-6.3-6.3h-31.3l-102.6 92.2v74.7c0 3.5 2.8 6.3 6.3 6.3h48l85.9-72.8v-94.1z" fill="#4B828E"/><path d="M412.6 357.5h79.5c3.5 0 6.3-2.9 6.3-6.3v-66.5l-85.8 72.8z" fill="#45777F"/><path fill="#F0EFEF" d="M374.6 303.6l23.3 23.3h84V203.7z"/><path fill="#fff" d="M481.9 194.3H373.6v108.3l1 1 107.3-99.9z"/><path opacity=".2" fill="#010101" d="M403 298.9l-29.4 3.7 24.3 24.3z"/><path fill="#fff" d="M397.9 302.6h-24.3l24.3 24.3z"/><path fill="#CBD8D9" d="M398.3 177.7v22.9h1.3l56.6-22.9z"/><path fill="#BACACC" d="M399.6 200.6h58.9v-22.9h-2.3z"/><g fill="#7B7B7B"><path d="M473.2 232.3c0 .5-.9.9-2 .9h-87.1c-1.1 0-2-.4-2-.9s.9-.9 2-.9h87.1c1.2 0 2 .4 2 .9zM473.2 236.5c0 .5-.9.9-2 .9h-87.1c-1.1 0-2-.4-2-.9s.9-.9 2-.9h87.1c1.2 0 2 .4 2 .9zM473.2 240.6c0 .5-.9.9-2 .9h-87.1c-1.1 0-2-.4-2-.9s.9-.9 2-.9h87.1c1.2.1 2 .5 2 .9zM473.2 244.8c0 .5-.9.9-2 .9h-87.1c-1.1 0-2-.4-2-.9s.9-.9 2-.9h87.1c1.2 0 2 .4 2 .9zM473.2 249c0 .5-.9.9-2 .9h-87.1c-1.1 0-2-.4-2-.9s.9-.9 2-.9h87.1c1.2 0 2 .4 2 .9zM473.2 253.2c0 .5-.9.9-2 .9h-87.1c-1.1 0-2-.4-2-.9s.9-.9 2-.9h87.1c1.2 0 2 .4 2 .9z"/></g><g fill="#7B7B7B"><path d="M473.2 260.4c0 .5-.9.9-2 .9h-87.1c-1.1 0-2-.4-2-.9s.9-.9 2-.9h87.1c1.2.1 2 .5 2 .9zM473.2 264.6c0 .5-.9.9-2 .9h-87.1c-1.1 0-2-.4-2-.9s.9-.9 2-.9h87.1c1.2 0 2 .4 2 .9zM473.2 268.8c0 .5-.9.9-2 .9h-87.1c-1.1 0-2-.4-2-.9s.9-.9 2-.9h87.1c1.2 0 2 .4 2 .9zM473.2 273c0 .5-.9.9-2 .9h-87.1c-1.1 0-2-.4-2-.9s.9-.9 2-.9h87.1c1.2 0 2 .4 2 .9zM473.2 277.1c0 .5-.9.9-2 .9h-87.1c-1.1 0-2-.4-2-.9s.9-.9 2-.9h87.1c1.2.1 2 .5 2 .9zM473.2 281.3c0 .5-.9.9-2 .9h-87.1c-1.1 0-2-.4-2-.9s.9-.9 2-.9h87.1c1.2 0 2 .4 2 .9z"/></g></g></svg>