<svg xmlns="http://www.w3.org/2000/svg" xmlns:xlink="http://www.w3.org/1999/xlink" width="1000" height="300" viewBox="0 0 1000 300"><g opacity=".71"><defs><path id="a" d="M41.1 107.8c0 3.4 2.8 6.2 6.3 6.2 3.4 0 6.2-2.8 6.2-6.3 0-3.4-2.8-6.2-6.3-6.2-3.4.1-6.2 2.9-6.2 6.3" opacity=".71"/></defs><clipPath id="c"><use xlink:href="#a" overflow="visible"/></clipPath><defs><filter id="b" filterUnits="userSpaceOnUse" x="34.9" y="95.4" width="24.9" height="24.9"><feColorMatrix values="1 0 0 0 0 0 1 0 0 0 0 0 1 0 0 0 0 0 1 0"/></filter></defs><mask maskUnits="userSpaceOnUse" x="34.9" y="95.4" width="24.9" height="24.9" id="e"><g filter="url(#b)"><radialGradient id="d" cx="101.447" cy="550.225" r=".83" gradientTransform="matrix(-317.766 -315.527 -315.527 317.766 206124 -142805)" gradientUnits="userSpaceOnUse"><stop offset="0" stop-color="#fff"/><stop offset="1"/></radialGradient><path clip-path="url(#c)" fill="url(#d)" d="M47.4 120.3l-12.5-12.4 12.4-12.5 12.5 12.4z"/></g></mask><radialGradient id="f" cx="101.447" cy="550.225" r=".83" gradientTransform="matrix(-317.766 -315.527 -315.527 317.766 206124 -142805)" gradientUnits="userSpaceOnUse"><stop offset="0" stop-color="#B1CDE7"/><stop offset="1" stop-color="#fff"/></radialGradient><path clip-path="url(#c)" mask="url(#e)" fill="url(#f)" d="M47.4 120.3l-12.5-12.4 12.4-12.5 12.5 12.4z"/></g><path d="M132.3 114.7c4.2-6.2.3-5.2.3-5.2l-65.9.2h-14l-45.1.3s-3.9-1 .3 5.2 6.8 7.8 6.9 17.2l.6 140.6s-3.9 3.3 10.4 3.2l42.8-.2h5.9l41.2-.1c14.3 0 10.4-3.3 10.4-3.3l-.5-140.6c-.1-9.5 2.5-11.1 6.7-17.3" fill="#fff"/><path fill="#F0E161" d="M30.325 161.834l76.1-.266.35 100.2-76.1.266z"/><g opacity=".1"><defs><path id="g" d="M126.537 275.86l-111.7.394-.442-125.3 111.7-.395z"/></defs><clipPath id="h"><use xlink:href="#g" overflow="visible"/></clipPath><path d="M126.1 272.6l-.4-122-110.5 90.3.1 32.1s-3.9 3.3 10.4 3.2l63.6-.2h5.8l20.5-.1c14.4 0 10.5-3.3 10.5-3.3" clip-path="url(#h)" fill="#626262"/></g><path d="M63.4 161.8L109 30.9c.9-2.7 3.9-4.1 6.6-3.2 2.7.9 4.1 3.9 3.2 6.6L74.4 161.9" fill="#314A2A"/><path stroke="#314A2A" stroke-width=".559" stroke-miterlimit="10" fill="none" d="M38 181.5l.2 69.4M38.1 189.7l13.2-.1M38.2 215.6h13.2M38.3 241.6h13.2"/><path d="M965 269.8l-220.5.8c-19.6.1-35.6-15.8-35.7-35.4l-.2-43c-.1-19.6 15.8-35.6 35.4-35.7l220.5-.8c19.6-.1 35.6 15.8 35.7 35.4l.2 43c.1 19.7-15.8 35.7-35.4 35.7zm-220.8-98.2c-11.3 0-20.4 9.2-20.3 20.5l.2 43c0 11.2 9.2 20.4 20.5 20.3l220.5-.8c11.3 0 20.4-9.2 20.3-20.5l-.2-43c0-11.3-9.2-20.4-20.5-20.3l-220.5.8z" fill="#DD5757"/><path d="M795.8 89.1l-39.4.1c-3.9 0-7 3.2-7 7v3.7c0 3.9 3.2 7 7 7h.1c-.1.7-.1 1.5-.1 2.2l.4 114.1c0 11 9 19.8 19.9 19.8 11 0 19.8-9 19.8-19.9l-.3-114.1c0-.8-.1-1.5-.1-2.2 3.8-.1 6.7-3.2 6.7-7v-3.7c0-3.9-3.2-7-7-7" fill="#fff"/><path d="M795.2 81.1c0 2.4-2 4.4-4.4 4.4l-29.5.1c-2.4 0-4.4-2-4.4-4.4 0-2.4 2-4.4 4.4-4.4l29.4-.1c2.5-.1 4.5 1.9 4.5 4.4" fill="#242526"/><path fill="#242526" d="M760.587 81.155l30.9-.11.036 10.3-30.9.11z"/><path d="M795.8 89.1l-39.4.1c-3.9 0-7 3.2-7 7v3.7c0 3.9 3.2 7 7 7h.1c-.1.7-.1 1.5-.1 2.2l.4 114.1c0 11 9 19.8 19.9 19.8 11 0 19.8-9 19.8-19.9l-.3-114.1c0-.8-.1-1.5-.1-2.2 3.8-.1 6.7-3.2 6.7-7v-3.7c0-3.9-3.2-7-7-7" fill="#fff"/><path d="M795.2 81.1c0 2.4-2 4.4-4.4 4.4l-29.5.1c-2.4 0-4.4-2-4.4-4.4 0-2.4 2-4.4 4.4-4.4l29.4-.1c2.5-.1 4.5 1.9 4.5 4.4" fill="#242526"/><path fill="#242526" d="M760.587 81.155l30.9-.11.036 10.3-30.9.11z"/><path d="M792.6 145.1l.3 77.9c0 8.9-7.2 16.2-16.1 16.2-8.9 0-16.2-7.2-16.2-16.1l-.3-77.9" fill="#FBB15F"/><path d="M875.7 88.8l-39.4.2c-3.9 0-7 3.2-7 7v3.7c0 3.9 3.2 7 7 7h.1c-.1.7-.1 1.5-.1 2.2l.4 114.1c0 11 9 19.8 19.9 19.8 11 0 19.8-9 19.8-19.9l-.4-114.1c0-.8-.1-1.5-.1-2.2 3.7-.1 6.7-3.2 6.7-7v-3.7c.1-3.9-3-7.1-6.9-7.1" fill="#fff"/><path d="M875.1 80.8c0 2.4-2 4.4-4.4 4.4l-29.4.1c-2.4 0-4.4-2-4.4-4.4 0-2.4 2-4.4 4.4-4.4l29.4-.1c2.4 0 4.4 1.9 4.4 4.4" fill="#242526"/><path fill="#242526" d="M840.587 80.856l30.9-.11.037 10.3-30.9.11z"/><path d="M872.5 120.3l.4 102.4c0 8.9-7.2 16.2-16.1 16.2-8.9 0-16.2-7.2-16.2-16.1l-.4-102.4" fill="#F0E161"/><path d="M955.7 88.6l-39.4.1c-3.9 0-7 3.2-7 7v3.7c0 3.9 3.2 7 7 7h.1c-.1.7-.1 1.5-.1 2.2l.4 114.1c0 11 9 19.8 19.9 19.8 11 0 19.8-9 19.8-19.9l-.4-114.1c0-.8-.1-1.5-.1-2.2 3.8-.1 6.7-3.2 6.7-7v-3.7c.1-3.9-3-7.1-6.9-7" fill="#fff"/><path d="M955.1 80.5c0 2.4-2 4.4-4.4 4.4l-29.4.1c-2.4 0-4.4-2-4.4-4.4 0-2.4 2-4.4 4.4-4.4l29.4-.1c2.4 0 4.4 2 4.4 4.4" fill="#242526"/><path fill="#242526" d="M920.488 80.655l30.9-.11.036 10.3-30.9.11z"/><path d="M952.7 181.2l.1 41.2c0 8.9-7.2 16.2-16.1 16.2-8.9 0-16.2-7.2-16.2-16.1l-.1-41.2" fill="#2B8590"/><path d="M56.5 107.9c0-2.8 2.2-5 5-5.1 2.8 0 5 2.2 5.1 5 0 2.8-2.2 5-5 5.1-2.8.1-5.1-2.2-5.1-5M24.8 36.7c0-8.3 6.7-15.1 15-15.1s15.1 6.7 15.1 15-6.7 15.1-15 15.1-15.1-6.7-15.1-15" fill="#F0E161"/><path d="M28.1 36.8s0-.3-.1-.9v-1c0-.4 0-.8.1-1.3s.2-1 .4-1.5c.1-.5.4-1.1.6-1.6.3-.5.6-1.1 1-1.6l1.2-1.5c.5-.4.9-.9 1.5-1.2.5-.4 1.1-.7 1.6-1 .6-.2 1.1-.5 1.6-.7.5-.2 1-.3 1.5-.4.5-.1.9-.1 1.3-.1h1c.5 0 .9.1.9.1s-.3.1-.8.2-1.3.3-2.2.6c-.4.1-.9.3-1.4.5-.5.2-.9.5-1.4.7-.5.3-1 .6-1.4 1-.5.3-.9.8-1.3 1.2-.4.4-.8.9-1.2 1.3-.4.5-.7 1-1 1.4-.2.5-.5 1-.7 1.5-.2.5-.4.9-.5 1.4-.3.9-.5 1.6-.5 2.2-.2.4-.2.7-.2.7" fill="#F3FAFB"/><path d="M50.3 67.1c0-5 4-9 9-9s9 4 9 9-4 9-9 9-9-4.1-9-9" fill="#F0E161"/><path d="M52.2 67.1V66c0-.2 0-.5.1-.7 0-.3.1-.5.2-.8.1-.3.2-.6.4-.9.2-.3.3-.6.5-.9.2-.3.4-.6.7-.8.3-.2.5-.5.8-.7.3-.2.6-.4.9-.5.3-.1.6-.3.9-.4.3-.1.6-.2.8-.2.3-.1.5-.1.7-.1h1.1s-.2 0-.5.1c-.3 0-.7.1-1.2.3-.2.1-.5.2-.8.3-.3.1-.5.3-.8.4-.3.2-.5.3-.8.5-.3.2-.5.4-.7.6-.2.2-.5.5-.6.7-.2.3-.4.5-.5.8-.1.3-.3.5-.4.8-.1.3-.2.5-.3.8-.2.5-.3.9-.3 1.2-.1.4-.2.6-.2.6" fill="#F3FAFB"/><path d="M43.2 88.7c0-3.3 2.7-6 6-6.1 3.3 0 6 2.7 6.1 6 0 3.3-2.7 6-6 6.1-3.4 0-6.1-2.6-6.1-6" fill="#F0E161"/><path d="M44.5 88.7V88c0-.1 0-.3.1-.5 0-.2.1-.4.1-.6.1-.2.2-.4.2-.6.1-.2.2-.4.4-.6.1-.2.3-.4.5-.6.2-.2.4-.3.6-.5.2-.2.4-.3.6-.4.2-.1.4-.2.6-.2.2-.1.4-.1.6-.1.2 0 .3 0 .5-.1h.7s-.1 0-.3.1c-.2 0-.5.1-.8.2-.2.1-.3.1-.5.2s-.3.2-.5.3c-.2.1-.4.2-.5.4-.2.1-.3.3-.5.4-.1.2-.3.3-.4.5-.1.2-.2.4-.4.5-.1.2-.2.4-.3.5-.1.2-.1.3-.2.5-.1.3-.2.6-.2.8-.3.4-.3.5-.3.5" fill="#F3FAFB"/><path d="M609 105.8c0 2.5-2 4.5-4.5 4.5s-4.5-2-4.5-4.5 2-4.5 4.5-4.5 4.5 2 4.5 4.5z" fill="#010101"/><path d="M636.1 93.6s-5.8-9.5-20.2-9.5c-14.3 0-20.2 9.5-20.2 9.5v99.9l40.3-51.6V93.6zm-20.2 5.2c-2.5 0-4.5-2-4.5-4.5s2-4.5 4.5-4.5 4.5 2 4.5 4.5-2 4.5-4.5 4.5z" fill="#FFE67E"/><path fill="#F9DD68" d="M595.7 193.5v77.9h40.4V141.8z"/><g fill="#67615A"><path d="M619.8 112.5h16.3v2.2h-16.3zM619.8 126.2h16.3v2.2h-16.3zM628.6 119.3h7.5v2.2h-7.5zM628.6 133.9h7.5v2.2h-7.5zM619.8 141.8h16.3v2.2h-16.3zM619.8 155.5h16.3v2.2h-16.3zM628.6 148.6h7.5v2.2h-7.5zM628.6 163.2h7.5v2.2h-7.5zM619.8 170.6h16.3v2.2h-16.3zM619.8 184.2h16.3v2.2h-16.3zM628.6 177.4h7.5v2.2h-7.5zM628.6 191.9h7.5v2.2h-7.5zM619.8 200.9h16.3v2.2h-16.3zM619.8 214.5h16.3v2.2h-16.3zM628.6 207.7h7.5v2.2h-7.5zM628.6 222.3h7.5v2.2h-7.5zM619.8 231.6h16.3v2.2h-16.3zM619.8 245.2h16.3v2.2h-16.3zM628.6 238.4h7.5v2.2h-7.5zM628.6 252.9h7.5v2.2h-7.5z"/></g><path d="M552.8 151.7c2-2.4 3.6-1.8 3.6 1.3v84.7c0 1.8-.9 3.4-2.2 4.5l26.2 26.2c.3-.7.5-1.5.5-2.3V80.4c0-3.1-1.6-3.7-3.6-1.3l-84.4 101.7 19.5 19.5 40.4-48.6z" fill="#FFE67E"/><path d="M554.2 242.2c-1 .8-2.2 1.3-3.5 1.3h-68.4c-3.1 0-4.1-2-2.1-4.4l32.1-38.7-19.5-19.5-71.8 86.5c-2 2.4-1.1 4.4 2.1 4.4h152.1c2.3 0 4.3-1.4 5.2-3.4l-26.2-26.2z" fill="#F9DD68"/><g fill="#67615A"><path d="M457.49 223.867l10.24 8.49-1.15 1.385-10.238-8.49zM473.7 225.2l-10.2-8.5 1.1-1.4 10.2 8.5zM461.08 219.584l4.696 3.894-1.15 1.385-4.695-3.893zM468.596 210.45l4.697 3.894-1.15 1.386-4.695-3.893zM472.727 205.434l10.236 8.492-1.15 1.386-10.235-8.492zM479.813 196.94l10.24 8.487-1.15 1.386-10.24-8.488zM476.306 201.178l4.696 3.893-1.148 1.387-4.697-3.893zM483.906 192.105l4.697 3.892-1.15 1.386-4.696-3.892zM487.687 187.46l10.24 8.485-1.15 1.386-10.24-8.485zM494.85 178.887l10.24 8.49-1.15 1.385-10.238-8.49zM491.275 183.206l4.696 3.894-1.148 1.385-4.696-3.893zM502.3 179.4l-4.7-3.9 1.2-1.4 4.7 3.9zM503.49 168.473l10.24 8.49-1.15 1.385-10.238-8.49zM510.616 159.908l10.24 8.486-1.147 1.386-10.242-8.486zM510.6 169.4l-4.7-3.9 1.1-1.3 4.7 3.8zM518.1 160.3l-4.7-3.9 1.2-1.4 4.7 3.9zM528.5 159l-10.2-8.4 1.1-1.4 10.2 8.5zM535.6 150.5l-10.2-8.5 1.1-1.4 10.2 8.5zM526.5 150.2l-4.7-3.9 1.2-1.4 4.7 3.9zM530.532 135.745l4.697 3.893-1.15 1.386-4.696-3.893z"/></g><path d="M278.6 62.6c-7.2 0-13 5.8-13 13v13.9c0 7.2 5.8 13 13 13s13-5.8 13-13V75.6c0-7.2-5.8-13-13-13zm0 13.5c-2.3 0-4.1-1.9-4.1-4.1 0-2.3 1.9-4.1 4.1-4.1 2.3 0 4.1 1.9 4.1 4.1 0 2.2-1.9 4.1-4.1 4.1z" fill="#CBD8D9"/><path d="M208.8 86.6c-3.8 0-6.9 3.1-6.9 6.9v94.1l112.4-101H208.8z" fill="#538F99"/><path d="M355.5 93.6c0-3.8-3.1-6.9-6.9-6.9h-34.3l-112.4 101v81.8c0 3.8 3.1 6.9 6.9 6.9h52.6l94.1-79.8v-103z" fill="#4B828E"/><path d="M261.4 276.5h87.2c3.8 0 6.9-3.1 6.9-6.9v-72.8l-94.1 79.7z" fill="#45777F"/><path fill="#F0EFEF" d="M219.8 217.5l25.5 25.4h92V108z"/><path fill="#fff" d="M337.3 97.6H218.6v118.7l1.2 1.2L337.3 108z"/><path opacity=".2" fill="#010101" d="M250.9 212.3l-32.3 4 26.7 26.6z"/><path fill="#fff" d="M245.3 216.3h-26.7l26.7 26.6z"/><path fill="#CBD8D9" d="M245.7 79.4v25.2h1.5l62-25.2z"/><path fill="#BACACC" d="M247.2 104.6h64.5V79.4h-2.5z"/><g fill="#7B7B7B"><path d="M327.9 139.3c0 .5-1 1-2.2 1h-95.5c-1.2 0-2.2-.4-2.2-1 0-.5 1-1 2.2-1h95.5c1.2 0 2.2.4 2.2 1zM327.9 143.8c0 .5-1 1-2.2 1h-95.5c-1.2 0-2.2-.4-2.2-1 0-.5 1-1 2.2-1h95.5c1.2.1 2.2.5 2.2 1zM327.9 148.4c0 .5-1 1-2.2 1h-95.5c-1.2 0-2.2-.4-2.2-1 0-.5 1-1 2.2-1h95.5c1.2.1 2.2.5 2.2 1zM327.9 153c0 .5-1 1-2.2 1h-95.5c-1.2 0-2.2-.4-2.2-1 0-.5 1-1 2.2-1h95.5c1.2 0 2.2.5 2.2 1zM327.9 157.6c0 .5-1 1-2.2 1h-95.5c-1.2 0-2.2-.4-2.2-1 0-.5 1-1 2.2-1h95.5c1.2 0 2.2.4 2.2 1zM327.9 162.2c0 .5-1 1-2.2 1h-95.5c-1.2 0-2.2-.4-2.2-1 0-.5 1-1 2.2-1h95.5c1.2 0 2.2.4 2.2 1z"/></g><g fill="#7B7B7B"><path d="M327.9 170.1c0 .5-1 1-2.2 1h-95.5c-1.2 0-2.2-.4-2.2-1 0-.5 1-1 2.2-1h95.5c1.2.1 2.2.5 2.2 1zM327.9 174.7c0 .5-1 1-2.2 1h-95.5c-1.2 0-2.2-.4-2.2-1 0-.5 1-1 2.2-1h95.5c1.2 0 2.2.5 2.2 1zM327.9 179.3c0 .5-1 1-2.2 1h-95.5c-1.2 0-2.2-.4-2.2-1 0-.5 1-1 2.2-1h95.5c1.2 0 2.2.5 2.2 1zM327.9 183.9c0 .5-1 1-2.2 1h-95.5c-1.2 0-2.2-.4-2.2-1 0-.5 1-1 2.2-1h95.5c1.2 0 2.2.4 2.2 1zM327.9 188.4c0 .5-1 1-2.2 1h-95.5c-1.2 0-2.2-.4-2.2-1 0-.5 1-1 2.2-1h95.5c1.2.1 2.2.5 2.2 1zM327.9 193c0 .5-1 1-2.2 1h-95.5c-1.2 0-2.2-.4-2.2-1 0-.5 1-1 2.2-1h95.5c1.2.1 2.2.5 2.2 1z"/></g></svg>