<svg xmlns="http://www.w3.org/2000/svg" width="500" height="300" viewBox="0 0 500 300"><path d="M11.9 259.4c-4.2 0-7.6 3.4-7.6 7.6v9.5c0 2.5 1.1 5.3 2.8 7.6 1.1 1.5 2.5 2.7 3.9 3.5l15.9 8.2c3.7 1.9 10.1 3.5 14.3 3.5H444c4.2 0 10.6-1.6 14.3-3.5l15.9-8.2c1.5-.8 2.8-2 3.9-3.5 1.7-2.3 2.8-5 2.8-7.6V267c0-4.2-3.4-7.6-7.6-7.6h-35.1c.7-1.1 1.1-2.4 1.1-3.8V24.9c0-4.2-3.4-7.6-7.6-7.6H53.5c-4.2 0-7.6 3.4-7.6 7.6v230.8c0 1.4.4 2.7 1 3.8h-35z" fill="#E9E9E9"/><path d="M68.6 2.2c-4.2 0-7.6 3.4-7.6 7.6v230.8c0 2.8 1.6 5.3 3.9 6.6l265.9-245H68.6z" fill="#556F70"/><path d="M446.9 2.2H330.8L64.9 247.1c1.1.6 2.3 1 3.7 1h378.3c4.2 0 7.6-3.4 7.6-7.6V9.7c0-4.1-3.5-7.5-7.6-7.5z" fill="#3D5357"/><path d="M496.1 261.3v-9.5c0-4.2-3.4-7.6-7.6-7.6H27c-4.2 0-7.6 3.4-7.6 7.6v9.5c0 2.5 1.1 5.3 2.8 7.6h471c1.7-2.3 2.9-5.1 2.9-7.6z" fill="#BACACC"/><path d="M22.2 268.9c1.1 1.5 2.5 2.7 3.9 3.5l15.9 8.2c3.7 1.9 10.1 3.5 14.3 3.5h402.9c4.2 0 10.6-1.6 14.3-3.5l15.9-8.2c1.5-.8 2.8-2 3.9-3.5H22.2z" fill="#A2B7B8"/><path d="M429.5 21.3l-339.8 218h336.5c3.7 0 6.7-3 6.7-6.7V27.1c0-2.5-1.4-4.7-3.4-5.8z" fill="#F0EFEF"/><path d="M426.2 20.4H89.3c-3.7 0-6.7 3-6.7 6.7v205.5c0 3.7 3 6.7 6.7 6.7h.4l339.8-218c-1-.6-2.1-.9-3.3-.9z" fill="#fff"/><path fill="#4B686C" d="M257.7 244.3l-36.7.1 3.6 3.7h66.2l3.7-3.7z"/><path fill="#F37A7C" d="M141.2 74.9h22.6v109.8h-22.6z"/><path fill="#FBAE53" d="M168.3 119.7h22.6v65h-22.6z"/><path fill="#508999" d="M194.6 105.6h22.6v79.2h-22.6z"/><path fill="#A9CD57" d="M221.6 152.3h22.6v32.5h-22.6z"/><g fill="#7B7B7B"><path d="M396.2 162.2c0 .5-1.2.9-2.7.9H275.1c-1.5 0-2.7-.4-2.7-.9s1.2-.9 2.7-.9h118.4c1.5 0 2.7.4 2.7.9zM396.2 166.4c0 .5-1.2.9-2.7.9H275.1c-1.5 0-2.7-.4-2.7-.9s1.2-.9 2.7-.9h118.4c1.5 0 2.7.4 2.7.9zM396.2 170.6c0 .5-1.2.9-2.7.9H275.1c-1.5 0-2.7-.4-2.7-.9s1.2-.9 2.7-.9h118.4c1.5.1 2.7.5 2.7.9zM396.2 174.9c0 .5-1.2.9-2.7.9H275.1c-1.5 0-2.7-.4-2.7-.9s1.2-.9 2.7-.9h118.4c1.5 0 2.7.4 2.7.9zM396.2 179.1c0 .5-1.2.9-2.7.9H275.1c-1.5 0-2.7-.4-2.7-.9s1.2-.9 2.7-.9h118.4c1.5 0 2.7.4 2.7.9zM396.2 183.3c0 .5-1.2.9-2.7.9H275.1c-1.5 0-2.7-.4-2.7-.9s1.2-.9 2.7-.9h118.4c1.5 0 2.7.4 2.7.9z"/></g><g fill="#7B7B7B"><path d="M396.2 131.9c0 .5-1.2.9-2.7.9H275.1c-1.5 0-2.7-.4-2.7-.9s1.2-.9 2.7-.9h118.4c1.5 0 2.7.4 2.7.9zM396.2 136.1c0 .5-1.2.9-2.7.9H275.1c-1.5 0-2.7-.4-2.7-.9s1.2-.9 2.7-.9h118.4c1.5.1 2.7.4 2.7.9zM396.2 140.3c0 .5-1.2.9-2.7.9H275.1c-1.5 0-2.7-.4-2.7-.9s1.2-.9 2.7-.9h118.4c1.5.1 2.7.5 2.7.9zM396.2 144.6c0 .5-1.2.9-2.7.9H275.1c-1.5 0-2.7-.4-2.7-.9s1.2-.9 2.7-.9h118.4c1.5 0 2.7.4 2.7.9zM396.2 148.8c0 .5-1.2.9-2.7.9H275.1c-1.5 0-2.7-.4-2.7-.9s1.2-.9 2.7-.9h118.4c1.5 0 2.7.4 2.7.9zM396.2 153c0 .5-1.2.9-2.7.9H275.1c-1.5 0-2.7-.4-2.7-.9s1.2-.9 2.7-.9h118.4c1.5 0 2.7.4 2.7.9z"/></g><g fill="#7B7B7B"><path d="M396.2 99.8c0 .5-1.2.9-2.7.9H275.1c-1.5 0-2.7-.4-2.7-.9s1.2-.9 2.7-.9h118.4c1.5 0 2.7.4 2.7.9zM396.2 104c0 .5-1.2.9-2.7.9H275.1c-1.5 0-2.7-.4-2.7-.9s1.2-.9 2.7-.9h118.4c1.5 0 2.7.4 2.7.9zM396.2 108.2c0 .5-1.2.9-2.7.9H275.1c-1.5 0-2.7-.4-2.7-.9s1.2-.9 2.7-.9h118.4c1.5 0 2.7.4 2.7.9zM396.2 112.4c0 .5-1.2.9-2.7.9H275.1c-1.5 0-2.7-.4-2.7-.9s1.2-.9 2.7-.9h118.4c1.5 0 2.7.4 2.7.9zM396.2 116.6c0 .5-1.2.9-2.7.9H275.1c-1.5 0-2.7-.4-2.7-.9s1.2-.9 2.7-.9h118.4c1.5 0 2.7.4 2.7.9zM396.2 120.8c0 .5-1.2.9-2.7.9H275.1c-1.5 0-2.7-.4-2.7-.9s1.2-.9 2.7-.9h118.4c1.5.1 2.7.5 2.7.9z"/></g></svg>